# xmcd
#
# Track frame offsets: 
#        182
#        9737
#        26487
#        44960
#        61687
#        78865
#        95210
#        116065
#        134682
#        153527
#        172887
#        193302
#        211157
#
# Disc length: 3058 seconds
#
# Revision: 2
# Processed by: cddbd v1.4PL0 Copyright (c) Steve Scherf et al.
# Submitted via: ExactAudioCopy v0.95a3
#
DISCID=b80bf00d
DTITLE=DFC - Things In Tha Hood
DYEAR=1994
DGENRE=Rap
TTITLE0=A Piece of My Mind (Intro)
TTITLE1=Put Your Locs On
TTITLE2=Caps Get Peeled
TTITLE3=Mo' Love
TTITLE4=Things in tha Hood
TTITLE5=Pass the Hooter
TTITLE6=2-2 the Chest
TTITLE7=Death B-4 Dishonesty
TTITLE8=Hand's on my Nine
TTITLE9=Roll With the Clan
TTITLE10=Digga Bigga Ditch
TTITLE11=You Can Get the Dick
TTITLE12=Da Bomb
EXTD=
EXTT0=
EXTT1=
EXTT2=
EXTT3=
EXTT4=
EXTT5=
EXTT6=
EXTT7=
EXTT8=
EXTT9=
EXTT10=
EXTT11=
EXTT12=
PLAYORDER=
